<?xml version="1.0" encoding="UTF-8"?>
<svg id="Layer_1" data-name="Layer 1" xmlns="http://www.w3.org/2000/svg" viewBox="0 0 275.01 80.77">
  <defs>
    <style>
      .cls-1 {
        fill: #d58d3f;
      }

      .cls-2 {
        fill: #d58e41;
      }

      .cls-3 {
        fill: #d58e40;
      }

      .cls-4 {
        fill: #ad5ab0;
      }

      .cls-5 {
        fill: #ef6f5d;
      }

      .cls-6 {
        fill: #bdc93a;
      }

      .cls-7 {
        fill: #d58d40;
      }

      .cls-8 {
        fill: #44dbbe;
      }

      .cls-9 {
        fill: #f2ed17;
      }

      .cls-10 {
        fill: #28912c;
      }

      .cls-11 {
        fill: #435f9c;
      }

      .cls-12 {
        fill: #f28b9a;
      }

      .cls-13 {
        fill: #d48c3e;
      }
    </style>
  </defs>
  <g>
    <path class="cls-9" d="M31.48,38.85c-1.36.04-2.66-.26-3.94-.68-.48-.16-.71-.38-.71-.92,0-.71-.1-1.43-.17-2.14-.11-1.23-.78-1.86-2-1.88-.87,0-1.75,0-2.62.03-.48.02-.73-.18-.96-.57-3.98-6.92.41-16.13,8.32-17.45,7.32-1.23,13.85,4.15,14.05,11.56.18,6.53-5.32,12.06-11.97,12.06Z"/>
    <path class="cls-13" d="M23.52,80.77c-2.93-.05-5.85-.24-8.73-.85-.48-.1-.62-.21-.28-.63,2.52-3.08,3.75-6.7,4.54-10.53,1.09-5.28,2.14-10.58,2.42-15.97.16-3.11-.18-6.22-.32-9.34-.1-2.21-.18-4.42-.28-6.63-.03-.66.11-1.07.93-.97.74.09,1.67-.23,2.19.12.57.38.23,1.39.33,2.12.53,3.83,1,7.66,1.52,11.49.26,1.98,1.53,2.55,3.17,1.36,1.69-1.23,3.43-2.39,5.18-3.53.59-.39.93-.35,1.2.31.09.23.24.44.38.64.3.42.3.73-.18,1.07-.91.65-1.72,1.45-2.65,2.08-1.67,1.13-2.6,2.73-3.16,4.6-1.63,5.53-2.04,11.08-.31,16.66.72,2.32,2.16,4.2,3.66,6.04.68.84.66.87-.41,1.08-3.04.58-6.11.84-9.2.88Z"/>
    <path class="cls-5" d="M19.16,9.02c3.14-.01,5.63.93,7.83,2.65.28.22.76.37.66.79-.09.38-.46.61-.88.75-2.21.78-4.14,2-5.76,3.71-2.28,2.41-3.63,5.25-3.92,8.56-.04.5-.19.73-.74.85-2.51.55-4.74,1.66-6.64,3.42-.28.26-.51.63-.89,0-4.62-7.56-1.14-17.77,7.32-20.3,1.08-.32,2.19-.48,3.01-.45Z"/>
    <path class="cls-4" d="M8.53,11.14C9.45,5.26,14.53.51,20.33.06c6.01-.47,10.4,2.09,13.36,7.26.62,1.09.6,1.11-.53,1.54-.93.36-1.86.76-2.66,1.35-.55.41-.89.28-1.35-.12-2.84-2.47-6.14-3.7-9.92-3.65-3.54.05-6.63,1.25-9.33,3.51-.43.36-.84.73-1.38,1.21Z"/>
    <path class="cls-11" d="M14.9,51.47c-7.61-2.92-9.76-13.2-4.15-19.04,1.57-1.63,3.42-2.77,5.61-3.4.67-.19.83.05.91.59.2,1.33.62,2.6,1.26,3.78.3.56.27.91-.22,1.36-2.4,2.19-3.88,4.91-4.47,8.11-.52,2.8-.17,5.51.87,8.14.04.11.09.21.19.46Z"/>
    <path class="cls-6" d="M46.04,28.47c1.88,1.64,3.11,3.57,3.75,5.88,1.56,5.64-1.27,11.67-6.57,14-.24.1-.52.39-.75.15-.12-.13-.06-.47-.02-.71.48-3.14.05-6.14-1.39-8.99-.16-.32-.41-.58.02-.95,2.73-2.36,4.28-5.37,4.85-8.91.02-.11.05-.23.11-.47Z"/>
    <path class="cls-10" d="M32.08,12.39c3.8-2.84,10.02-2.37,13.95.99,4.12,3.51,5.4,9.62,2.93,14.24-.89-.83-1.76-1.67-2.79-2.31-.31-.19-.31-.54-.35-.83-.98-6.1-6.13-11.47-13.37-12.03-.09,0-.18-.03-.37-.06Z"/>
    <path class="cls-8" d="M28.27,48.23c-.33-2.36-.63-4.58-.95-6.79-.07-.45.03-.58.48-.46,3.55.95,6.97.56,10.25-1.05.6-.29.69.1.87.46,2.05,4.09,1.23,9.65-1.92,12.98-1.5,1.59-2.73,2.44-4.56,3.12.27-1,.66-1.79,1.41-2.39,1.29-1.03,2.58-2.06,3.9-3.06,1.21-.92,1.45-1.83.72-3.15-.45-.82-.93-1.62-1.42-2.42-.84-1.35-1.82-1.62-3.25-.8-1.65.94-3.25,1.97-4.79,3.08-.2.14-.41.27-.72.48Z"/>
    <path class="cls-12" d="M4.15,22.07c.03,3.58.92,6.87,2.97,9.79.25.36.24.65.01,1.02-1.11,1.76-1.84,3.66-2.04,5.74-.07.7-.36.66-.84.29-2.36-1.82-3.8-4.22-4.16-7.16-.45-3.63.73-6.75,3.36-9.31.17-.16.31-.4.7-.38Z"/>
    <path class="cls-8" d="M18.36,38.77c.18,4.73.56,9.32.61,13.96-3-2.66-4.02-9.49-.61-13.96Z"/>
  </g>
  <g>
    <path class="cls-3" d="M92.95,55.42c0,2.34-.03,4.68.01,7.01.02,1.09-.45,1.56-1.52,1.54-1.32-.02-2.64-.03-3.95,0-1.21.03-1.65-.5-1.64-1.7.04-4.55-.01-9.1.04-13.64.01-1-.27-1.4-1.28-1.27-.42.06-.85.02-1.27,0-.76-.04-1.2-.45-1.22-1.2-.03-1.44-.04-2.89,0-4.33.03-.95.61-1.27,1.53-1.27,2.22-.01,2.21-.04,2.21-2.29,0-1.23.02-2.47,0-3.7-.02-.94.38-1.46,1.33-1.47,1.49-.01,2.97-.01,4.46,0,.89,0,1.3.48,1.29,1.37-.01,1.7.03,3.4-.02,5.1-.02.77.19,1.05.99,1.01,1.48-.06,2.97-.06,4.45,0,.81.03,1.13-.19,1.09-1.06-.07-1.57-.03-3.14-.01-4.72.02-1.42.31-1.71,1.73-1.72,1.19-.01,2.38-.01,3.57,0,1.6.02,1.81.24,1.83,1.88.02,1.49.05,2.98-.01,4.46-.04.88.22,1.26,1.13,1.15.42-.05.85,0,1.27,0,.91-.02,1.32.44,1.32,1.32,0,1.32-.03,2.64,0,3.95.03,1.1-.49,1.56-1.54,1.53-.25,0-.51.03-.76,0-1.1-.16-1.46.24-1.44,1.39.07,4.38.03,8.75.03,13.13,0,1.89-.18,2.07-2.01,2.07-1.06,0-2.12,0-3.19,0-1.68,0-1.94-.25-1.94-1.9,0-4.25,0-8.5,0-12.75,0-2.23.22-1.91-1.86-1.94-1.14-.01-2.28.07-3.42-.02-1.07-.09-1.27.35-1.24,1.31.06,2.25.02,4.5.02,6.76Z"/>
    <path class="cls-1" d="M152.97,42.45c2.33-2.05,4.92-2.8,7.78-2.48,4.36.49,7.37,2.91,9.08,6.86,1.86,4.3,1.57,8.54-.87,12.56-3.47,5.69-11.19,6.95-15.97,2.71.08,1.71-.91,1.99-2.28,1.89-1.06-.08-2.12,0-3.19-.02-1.44-.01-1.72-.28-1.72-1.71,0-4.16,0-8.33,0-12.49,0-5.57,0-11.13,0-16.7,0-1.57.26-1.82,1.86-1.83,1.15,0,2.29,0,3.44,0,1.51.01,1.8.29,1.81,1.77,0,2.85,0,5.69,0,8.54,0,.24.03.48.05.91ZM152.92,52.31c.01,3.36,2.29,5.66,5.56,5.62,3.18-.04,5.43-2.38,5.45-5.65.01-3.37-2.2-5.62-5.54-5.62-3.35,0-5.48,2.21-5.47,5.65Z"/>
    <path class="cls-1" d="M261.46,42.42c1.32-1.27,2.63-2.08,4.21-2.35,5.09-.88,9.01,2.15,9.22,7.46.2,5.05.07,10.12.09,15.18,0,.86-.43,1.25-1.25,1.25-1.28,0-2.55,0-3.83,0-1.74,0-2.01-.25-2.01-1.97-.01-3.87,0-7.74,0-11.61,0-.3,0-.6,0-.89-.07-1.8-1.02-2.89-2.62-3.04-1.97-.18-3.25.74-3.63,2.58-.29,1.39-.16,2.8-.17,4.2-.02,3.02,0,6.04,0,9.06,0,1.47-.21,1.67-1.72,1.68-1.32,0-2.64,0-3.95,0-.89,0-1.31-.39-1.31-1.32.01-10.03.01-20.07,0-30.1,0-.93.44-1.31,1.32-1.32,1.45,0,2.89,0,4.34,0,.97,0,1.34.49,1.33,1.44-.03,2.76,0,5.53,0,8.29,0,.41,0,.81,0,1.47Z"/>
    <path class="cls-1" d="M127.55,55.09c.43,3.17,5,5.06,8.12,2.94,2.24-1.52,4.6-.72,6.91-.81.77-.03.75.73.45,1.37-.78,1.71-1.94,3.09-3.49,4.14-5.19,3.51-13.5,2.09-17.24-2.94-3.37-4.53-3.1-11.47.61-15.75,3.66-4.22,10.44-5.43,15.39-2.65,4.59,2.58,6.42,7.58,5.91,12.51-.11,1.05-.85,1.21-1.75,1.21-4.51-.02-9.02,0-13.52,0h-1.38ZM132.24,49.73c1.35,0,2.71-.03,4.06.01.86.03.92-.28.58-.95-.95-1.89-2.56-2.62-4.57-2.59-2.05.03-3.68.82-4.65,2.73-.32.64-.14.81.52.8,1.35-.02,2.71,0,4.06,0Z"/>
    <path class="cls-7" d="M185.68,47.07c.31-.02.42-.22.48-.49,1.14-5.17,6.45-7.12,10.79-6.61,5.54.65,8.49,4.01,8.49,9.56,0,4.21,0,8.41,0,12.62,0,1.54-.26,1.79-1.76,1.8-1.02,0-2.04-.01-3.06,0-1.06.02-2.16.13-2.12-1.61-2.51,2.28-5.26,2.61-8.16,1.97-3.82-.84-5.8-3.8-5.46-7.99.27-3.44,3.1-6.11,6.71-6.31,2.1-.12,4.17.03,6.06,1.1.65.37.94.23.91-.53-.02-.55-.04-1.1-.09-1.65-.09-1.28-.69-2.17-2-2.45-1.46-.31-2.79.16-3.41,1.33-.4.74-.91,1.05-1.73,1.01-.81-.03-1.62-.03-2.42,0-1.35.06-2.7.17-3.3-1.46.02-.1.05-.2.07-.31ZM195.13,59.55c.61-.02,1.33-.04,2-.35.89-.4,1.43-1.05,1.37-2.06-.08-1.37-1.27-2.1-3.38-2.11-1.94-.01-3.03.69-3.16,2.03-.15,1.58.95,2.48,3.17,2.5Z"/>
    <path class="cls-1" d="M214.7,42.52c1.6-1.85,3.45-2.49,5.51-2.61,3.93-.23,6.96,2.29,7.75,6.42.2,1.05.28,2.1.28,3.17,0,4.21,0,8.41,0,12.62,0,1.59-.26,1.83-1.86,1.84-1.1,0-2.21,0-3.31,0-1.73,0-1.94-.22-1.94-2.02,0-4.08.03-8.16-.01-12.24-.02-2.64-2.16-4.03-4.55-3-1.44.63-1.84,1.91-1.85,3.35-.01,3.99,0,7.99,0,11.98,0,1.7-.22,1.91-1.9,1.92-1.23,0-2.46-.02-3.7,0-1.08.02-1.53-.5-1.52-1.56.01-6.76.02-13.51,0-20.27,0-1.14.48-1.62,1.61-1.58,1.27.05,2.55.06,3.82,0,1.19-.06,1.78.41,1.67,1.96Z"/>
    <path class="cls-1" d="M249.57,49.51c-.72,0-1.45-.02-2.17,0-.78.03-1.36-.24-1.88-.84-1.62-1.9-4.41-2.33-6.59-1.08-2.21,1.27-3.17,4-2.29,6.54.82,2.39,3.22,3.83,5.73,3.46,1.26-.19,2.38-.65,3.16-1.7.48-.64,1.1-.91,1.86-.92,1.44-.01,2.89-.05,4.33,0,1.49.06,1.76.52,1.26,1.96-1.73,4.98-6.57,7.92-12.53,7.62-5.12-.26-9.66-4.13-10.87-9.26-1.23-5.24.82-10.61,5.12-13.4,4.43-2.87,10.42-2.64,14.57.58,1.79,1.39,3.04,3.19,3.77,5.33.41,1.21.09,1.66-1.19,1.7-.76.02-1.53,0-2.29,0Z"/>
    <path class="cls-2" d="M118.33,47.08c0,4.97,0,9.94,0,14.91,0,1.77-.21,1.97-1.98,1.97-1.1,0-2.21,0-3.31,0-1.56,0-1.84-.28-1.84-1.87,0-7.35,0-14.7,0-22.05,0-2.63,0-5.27,0-7.9,0-1.56.29-1.84,1.87-1.86,1.15-.02,2.29-.02,3.44,0,1.59.02,1.82.25,1.82,1.89,0,4.97,0,9.94,0,14.91Z"/>
    <path class="cls-2" d="M71.29,47.21c0,5.02,0,10.04,0,15.06,0,1.48-.21,1.68-1.69,1.69-1.19,0-2.38,0-3.57,0-1.51-.01-1.79-.28-1.79-1.79,0-5.61,0-11.23,0-16.84,0-4.38,0-8.76,0-13.14,0-1.65.26-1.89,1.94-1.9,1.19,0,2.38.02,3.57,0,1.12-.02,1.57.46,1.56,1.62-.04,5.1-.02,10.21-.02,15.31Z"/>
    <path class="cls-1" d="M185.68,47.07c-.02.1-.05.2-.07.31-.11.65-.62.57-1.08.6-3.31.25-4.79,1.85-4.8,5.18,0,3.02,0,6.04,0,9.06,0,1.44-.29,1.73-1.7,1.75-1.32.01-2.64,0-3.95,0-1.01,0-1.46-.45-1.46-1.47.01-6.8.01-13.6,0-20.41,0-1.07.44-1.56,1.54-1.52,1.27.04,2.55,0,3.83.01,1.51,0,1.73.24,1.75,1.8,0,.28,0,.56,0,1.25,1.2-2,2.62-3.09,4.59-3.4.84-.13,1.36.11,1.4.99.07,1.95.21,3.9-.02,5.85Z"/>
    <path class="cls-2" d="M74.13,52.14c0-3.31.03-6.62-.01-9.94-.01-1.2.45-1.7,1.66-1.65,1.31.06,2.63.04,3.95,0,1.01-.03,1.49.39,1.49,1.42-.01,6.84-.01,13.67,0,20.51,0,1.03-.47,1.47-1.46,1.47-1.36,0-2.72-.02-4.08,0-1.15.02-1.57-.51-1.56-1.64.04-3.4.01-6.79.01-10.19Z"/>
    <path class="cls-2" d="M77.63,31.22c4-.02,3.58-.21,3.58,3.53q0,3.1-3.12,3.1c-.85,0-1.69-.01-2.54,0-1.02.01-1.45-.49-1.43-1.49.03-1.23.03-2.46,0-3.68-.02-1.04.49-1.46,1.47-1.45.68,0,1.35,0,2.03,0Z"/>
  </g>
</svg>